<svg xmlns="http://www.w3.org/2000/svg" viewBox="0 0 200 200" width="200" height="200">
  
  <defs>
    <filter id="logo-goo" x="-10%" y="-10%" width="120%" height="120%">
      <feGaussianBlur in="SourceGraphic" stdDeviation="4" result="blur"></feGaussianBlur>
      <feColorMatrix in="blur" mode="matrix" values="1 0 0 0 0&#xA;                0 1 0 0 0&#xA;                0 0 1 0 0&#xA;                0 0 0 22 -10"></feColorMatrix>
    </filter>
  </defs>
  <g filter="url(#logo-goo)">
    
    <path d="M100 24&#xA;             a76 76 0 1 0 0 152&#xA;             a76 76 0 0 0 76-76&#xA;             h-60&#xA;             a16 16 0 0 0 0 32&#xA;             h28&#xA;             a44 44 0 1 1 -44-44&#xA;             a44 44 0 0 1 31 13&#xA;             a16 16 0 0 0 23-23&#xA;             a76 76 0 0 0 -54-22 z" fill="currentColor"></path>
    
    <circle cx="160" cy="46" r="9" fill="currentColor"></circle>
    <circle cx="168" cy="60" r="5" fill="currentColor"></circle>
  </g>
</svg>